<svg id="visual" viewBox="0 0 900 600" width="900" height="600" xmlns="http://www.w3.org/2000/svg" xmlns:xlink="http://www.w3.org/1999/xlink" version="1.1"><path d="M0 392L10.7 385C21.3 378 42.7 364 64.2 357.5C85.7 351 107.3 352 128.8 364.7C150.3 377.3 171.7 401.7 193 429.8C214.3 458 235.7 490 257 506.7C278.3 523.3 299.7 524.7 321.2 514.8C342.7 505 364.3 484 385.8 474.8C407.3 465.7 428.7 468.3 450 444.2C471.3 420 492.7 369 514.2 363.3C535.7 357.7 557.3 397.3 578.8 427.5C600.3 457.7 621.7 478.3 643 479.8C664.3 481.3 685.7 463.7 707 439.3C728.3 415 749.7 384 771.2 390.7C792.7 397.3 814.3 441.7 835.8 461.3C857.3 481 878.7 476 889.3 473.5L900 471L900 601L889.3 601C878.7 601 857.3 601 835.8 601C814.3 601 792.7 601 771.2 601C749.7 601 728.3 601 707 601C685.7 601 664.3 601 643 601C621.7 601 600.3 601 578.8 601C557.3 601 535.7 601 514.2 601C492.7 601 471.3 601 450 601C428.7 601 407.3 601 385.8 601C364.3 601 342.7 601 321.2 601C299.7 601 278.3 601 257 601C235.7 601 214.3 601 193 601C171.7 601 150.3 601 128.8 601C107.3 601 85.7 601 64.2 601C42.7 601 21.3 601 10.7 601L0 601Z" fill="#009473" stroke-linecap="round" stroke-linejoin="miter"></path></svg>